<svg width="45" height="27" viewBox="0 0 45 27" fill="none" xmlns="http://www.w3.org/2000/svg">
<path fill-rule="evenodd" clip-rule="evenodd" d="M22.3269 0C16.3731 0 12.6519 3 11.1635 9C13.3961 6 16.001 4.875 18.9779 5.625C20.6764 6.0525 21.8903 7.295 23.2341 8.66917C25.4229 10.9083 27.9566 13.5 33.4904 13.5C39.4442 13.5 43.1654 10.5 44.6538 4.5C42.4211 7.5 39.8163 8.625 36.8394 7.875C35.1409 7.4475 33.927 6.205 32.5832 4.83083C30.3944 2.59167 27.8607 0 22.3269 0ZM11.1635 13.5C5.20961 13.5 1.48846 16.5 0 22.5C2.23269 19.5 4.8375 18.375 7.81442 19.125C9.51292 19.5533 10.7268 20.795 12.0706 22.1692C14.2595 24.4083 16.7931 27 22.3269 27C28.2808 27 32.0019 24 33.4904 18C31.2577 21 28.6529 22.125 25.676 21.375C23.9775 20.9475 22.7635 19.705 21.4198 18.3308C19.2309 16.0917 16.6972 13.5 11.1635 13.5Z" fill="#38BDF8"/>
</svg>
