<svg width="307" height="56" viewBox="0 0 307 56" fill="none" xmlns="http://www.w3.org/2000/svg">
<path d="M77 16.0575H87.9853V47.5249H94.556V16.0575H105.541V10.0002H77V16.0575Z" fill="#1C274C"/>
<path d="M112.875 48.1922C116.827 48.1922 120.267 46.3955 121.345 43.7775L121.807 47.5249H127.299V32.1249C127.299 25.0922 123.09 21.3962 116.263 21.3962C109.384 21.3962 104.867 24.9895 104.867 30.4822H110.205C110.205 27.8129 112.259 26.2729 115.955 26.2729C119.137 26.2729 121.191 27.6589 121.191 31.0982V31.6629L113.593 32.2275C107.587 32.6895 104.199 35.6155 104.199 40.2869C104.199 45.0609 107.485 48.1922 112.875 48.1922ZM114.928 43.4695C112.105 43.4695 110.565 42.3402 110.565 40.0302C110.565 37.9769 112.053 36.6935 115.955 36.3342L121.242 35.9235V37.2582C121.242 41.1595 118.778 43.4695 114.928 43.4695Z" fill="#1C274C"/>
<path d="M136.583 17.0842C138.637 17.0842 140.331 15.3902 140.331 13.2855C140.331 11.1809 138.637 9.53822 136.583 9.53822C134.427 9.53822 132.733 11.1809 132.733 13.2855C132.733 15.3902 134.427 17.0842 136.583 17.0842ZM133.452 47.5249H139.715V22.1662H133.452V47.5249Z" fill="#1C274C"/>
<path d="M152.499 47.5249V9.33289H146.288V47.5249H152.499Z" fill="#1C274C"/>
<path d="M163.226 47.5249L166.255 38.8495H180.269L183.298 47.5249H190.228L176.676 10.0002H169.951L156.399 47.5249H163.226ZM172.466 21.1909C172.826 20.1642 173.134 19.0349 173.288 18.3162C173.39 19.0862 173.75 20.2156 174.058 21.1909L178.37 33.3055H168.206L172.466 21.1909Z" fill="#1C274C"/>
<path d="M203.277 48.1922C207.127 48.1922 210.412 46.4982 211.952 43.5722L212.363 47.5249H218.112V9.33289H211.901V25.4002C210.31 22.8849 207.178 21.3962 203.636 21.3962C195.988 21.3962 191.368 27.0429 191.368 34.9482C191.368 42.8022 195.936 48.1922 203.277 48.1922ZM204.663 42.4429C200.299 42.4429 197.63 39.2602 197.63 34.7429C197.63 30.2255 200.299 26.9915 204.663 26.9915C209.026 26.9915 211.85 30.1742 211.85 34.7429C211.85 39.3115 209.026 42.4429 204.663 42.4429Z" fill="#1C274C"/>
<path d="M230.901 47.5249V33.1515C230.901 29.0449 233.314 27.0942 236.291 27.0942C239.269 27.0942 241.168 28.9935 241.168 32.5355V47.5249H247.431V33.1515C247.431 28.9935 249.741 27.0429 252.769 27.0429C255.747 27.0429 257.697 28.9422 257.697 32.5869V47.5249H263.909V30.9442C263.909 25.0922 260.521 21.3962 254.361 21.3962C250.511 21.3962 247.533 23.2955 246.25 26.2215C244.915 23.2955 242.246 21.3962 238.396 21.3962C234.751 21.3962 232.185 23.0389 230.901 25.1435L230.388 22.1662H224.639V47.5249H230.901Z" fill="#1C274C"/>
<path d="M273.188 17.0842C275.241 17.0842 276.935 15.3902 276.935 13.2855C276.935 11.1809 275.241 9.53822 273.188 9.53822C271.032 9.53822 269.338 11.1809 269.338 13.2855C269.338 15.3902 271.032 17.0842 273.188 17.0842ZM270.057 47.5249H276.319V22.1662H270.057V47.5249Z" fill="#1C274C"/>
<path d="M289.052 47.5249V33.8702C289.052 29.7635 291.414 27.0942 295.264 27.0942C298.498 27.0942 300.602 29.1475 300.602 33.4082V47.5249H306.865V31.9195C306.865 25.3489 303.58 21.3962 297.214 21.3962C293.775 21.3962 290.695 22.8849 289.104 25.4515L288.59 22.1662H282.79V47.5249H289.052Z" fill="#1C274C"/>
<path d="M0 14.7368C0 6.59791 6.59791 0 14.7368 0H41.2632C49.4021 0 56 6.59791 56 14.7368V41.2632C56 49.4021 49.4021 56 41.2632 56H14.7368C6.59791 56 0 49.4021 0 41.2632V14.7368Z" fill="#3C50E0"/>
<g filter="url(#filter0_d_810_17099)">
<path d="M14.7373 14.7378C14.7373 13.11 16.0568 11.7905 17.6846 11.7905C19.3124 11.7905 20.632 13.11 20.632 14.7378V41.2642C20.632 42.8919 19.3124 44.2115 17.6846 44.2115C16.0568 44.2115 14.7373 42.8919 14.7373 41.2642V14.7378Z" fill="white"/>
</g>
<g opacity="0.9" filter="url(#filter1_d_810_17099)">
<path d="M25.7897 26.5258C25.7897 24.898 27.1092 23.5784 28.737 23.5784C30.3648 23.5784 31.6844 24.898 31.6844 26.5258V41.2626C31.6844 42.8904 30.3648 44.21 28.737 44.21C27.1092 44.21 25.7897 42.8904 25.7897 41.2626V26.5258Z" fill="white"/>
</g>
<g opacity="0.7" filter="url(#filter2_d_810_17099)">
<path d="M36.8414 19.1568C36.8414 17.529 38.1609 16.2094 39.7887 16.2094C41.4165 16.2094 42.7361 17.529 42.7361 19.1568V41.2621C42.7361 42.8899 41.4165 44.2094 39.7887 44.2094C38.1609 44.2094 36.8414 42.8899 36.8414 41.2621V19.1568Z" fill="white"/>
</g>
<defs>
<filter id="filter0_d_810_17099" x="13.7373" y="11.2905" width="7.89473" height="34.4211" filterUnits="userSpaceOnUse" color-interpolation-filters="sRGB">
<feFlood flood-opacity="0" result="BackgroundImageFix"/>
<feColorMatrix in="SourceAlpha" type="matrix" values="0 0 0 0 0 0 0 0 0 0 0 0 0 0 0 0 0 0 127 0" result="hardAlpha"/>
<feOffset dy="0.5"/>
<feGaussianBlur stdDeviation="0.5"/>
<feComposite in2="hardAlpha" operator="out"/>
<feColorMatrix type="matrix" values="0 0 0 0 0 0 0 0 0 0 0 0 0 0 0 0 0 0 0.12 0"/>
<feBlend mode="normal" in2="BackgroundImageFix" result="effect1_dropShadow_810_17099"/>
<feBlend mode="normal" in="SourceGraphic" in2="effect1_dropShadow_810_17099" result="shape"/>
</filter>
<filter id="filter1_d_810_17099" x="24.7897" y="23.0784" width="7.89474" height="22.6316" filterUnits="userSpaceOnUse" color-interpolation-filters="sRGB">
<feFlood flood-opacity="0" result="BackgroundImageFix"/>
<feColorMatrix in="SourceAlpha" type="matrix" values="0 0 0 0 0 0 0 0 0 0 0 0 0 0 0 0 0 0 127 0" result="hardAlpha"/>
<feOffset dy="0.5"/>
<feGaussianBlur stdDeviation="0.5"/>
<feComposite in2="hardAlpha" operator="out"/>
<feColorMatrix type="matrix" values="0 0 0 0 0 0 0 0 0 0 0 0 0 0 0 0 0 0 0.12 0"/>
<feBlend mode="normal" in2="BackgroundImageFix" result="effect1_dropShadow_810_17099"/>
<feBlend mode="normal" in="SourceGraphic" in2="effect1_dropShadow_810_17099" result="shape"/>
</filter>
<filter id="filter2_d_810_17099" x="35.8414" y="15.7094" width="7.89474" height="30" filterUnits="userSpaceOnUse" color-interpolation-filters="sRGB">
<feFlood flood-opacity="0" result="BackgroundImageFix"/>
<feColorMatrix in="SourceAlpha" type="matrix" values="0 0 0 0 0 0 0 0 0 0 0 0 0 0 0 0 0 0 127 0" result="hardAlpha"/>
<feOffset dy="0.5"/>
<feGaussianBlur stdDeviation="0.5"/>
<feComposite in2="hardAlpha" operator="out"/>
<feColorMatrix type="matrix" values="0 0 0 0 0 0 0 0 0 0 0 0 0 0 0 0 0 0 0.12 0"/>
<feBlend mode="normal" in2="BackgroundImageFix" result="effect1_dropShadow_810_17099"/>
<feBlend mode="normal" in="SourceGraphic" in2="effect1_dropShadow_810_17099" result="shape"/>
</filter>
</defs>
</svg>
