<svg width="46" height="46" viewBox="0 0 46 46" fill="none" xmlns="http://www.w3.org/2000/svg">
<path d="M3.83333 11.9035C3.83333 8.09919 3.83333 6.19703 5.09644 5.01518C6.35954 3.83333 8.39247 3.83333 12.4583 3.83333C16.5242 3.83333 18.5571 3.83333 19.8202 5.01518C21.0833 6.19703 21.0833 8.09919 21.0833 11.9035V34.0965C21.0833 37.9008 21.0833 39.803 19.8202 40.9848C18.5571 42.1667 16.5242 42.1667 12.4583 42.1667C8.39247 42.1667 6.35954 42.1667 5.09644 40.9848C3.83333 39.803 3.83333 37.9008 3.83333 34.0965V11.9035Z" fill="#3C50E0"/>
<path d="M24.9167 29.5167C24.9167 25.5411 24.9167 23.5534 26.1798 22.3184C27.4429 21.0833 29.4758 21.0833 33.5417 21.0833C37.6075 21.0833 39.6405 21.0833 40.9036 22.3184C42.1667 23.5534 42.1667 25.5411 42.1667 29.5167V33.7333C42.1667 37.7088 42.1667 39.6966 40.9036 40.9316C39.6405 42.1667 37.6075 42.1667 33.5417 42.1667C29.4758 42.1667 27.4429 42.1667 26.1798 40.9316C24.9167 39.6966 24.9167 37.7088 24.9167 33.7333V29.5167Z" fill="#3C50E0"/>
<path d="M24.9167 10.5417C24.9167 8.45787 24.9167 7.41598 25.2449 6.59411C25.6826 5.49829 26.5222 4.62767 27.5788 4.17376C28.3713 3.83333 29.376 3.83333 31.3854 3.83333H35.6979C37.7073 3.83333 38.712 3.83333 39.5045 4.17376C40.5612 4.62767 41.4007 5.49829 41.8384 6.59411C42.1667 7.41598 42.1667 8.45787 42.1667 10.5417C42.1667 12.6255 42.1667 13.6674 41.8384 14.4892C41.4007 15.585 40.5612 16.4557 39.5045 16.9096C38.712 17.25 37.7073 17.25 35.6979 17.25H31.3854C29.376 17.25 28.3713 17.25 27.5788 16.9096C26.5222 16.4557 25.6826 15.585 25.2449 14.4892C24.9167 13.6674 24.9167 12.6255 24.9167 10.5417Z" fill="#3C50E0"/>
</svg>
