<svg width="26" height="38" viewBox="0 0 26 38" fill="none" xmlns="http://www.w3.org/2000/svg">
<g clip-path="url(#clip0_810_17116)">
<path d="M12.6667 19C12.6667 17.3203 13.3339 15.7094 14.5216 14.5217C15.7094 13.3339 17.3203 12.6667 19 12.6667C20.6797 12.6667 22.2906 13.3339 23.4783 14.5217C24.6661 15.7094 25.3333 17.3203 25.3333 19C25.3333 20.6797 24.6661 22.2906 23.4783 23.4783C22.2906 24.6661 20.6797 25.3333 19 25.3333C17.3203 25.3333 15.7094 24.6661 14.5216 23.4783C13.3339 22.2906 12.6667 20.6797 12.6667 19Z" fill="#1ABCFE"/>
<path d="M0 31.6667C0 29.987 0.66726 28.3761 1.85499 27.1883C3.04272 26.0006 4.65363 25.3333 6.33333 25.3333H12.6667V31.6667C12.6667 33.3464 11.9994 34.9573 10.8117 36.145C9.62394 37.3327 8.01304 38 6.33333 38C4.65363 38 3.04272 37.3327 1.85499 36.145C0.66726 34.9573 0 33.3464 0 31.6667H0Z" fill="#0ACF83"/>
<path d="M12.6667 0V12.6667H19C20.6797 12.6667 22.2906 11.9994 23.4783 10.8117C24.6661 9.62394 25.3333 8.01304 25.3333 6.33333C25.3333 4.65363 24.6661 3.04272 23.4783 1.85499C22.2906 0.66726 20.6797 0 19 0L12.6667 0Z" fill="#FF7262"/>
<path d="M0 6.33333C0 8.01304 0.66726 9.62394 1.85499 10.8117C3.04272 11.9994 4.65363 12.6667 6.33333 12.6667H12.6667V0H6.33333C4.65363 0 3.04272 0.66726 1.85499 1.85499C0.66726 3.04272 0 4.65363 0 6.33333H0Z" fill="#F24E1E"/>
<path d="M0 19C0 20.6797 0.66726 22.2906 1.85499 23.4783C3.04272 24.6661 4.65363 25.3333 6.33333 25.3333H12.6667V12.6667H6.33333C4.65363 12.6667 3.04272 13.3339 1.85499 14.5217C0.66726 15.7094 0 17.3203 0 19H0Z" fill="#A259FF"/>
</g>
<defs>
<clipPath id="clip0_810_17116">
<rect width="25.3333" height="38" fill="white"/>
</clipPath>
</defs>
</svg>
