<svg width="39" height="43" viewBox="0 0 39 43" fill="none" xmlns="http://www.w3.org/2000/svg">
<path d="M19.5 0L39 10.6628V31.9934L19.5 42.6562L0 31.9934V10.6628L19.5 0Z" fill="white"/>
<path d="M35.5182 31.2579L20.145 39.6654V33.1186L29.7237 28.0235L35.5182 31.2579ZM36.5713 30.3372V12.7574L30.9481 15.8993V27.2002L36.5713 30.3372ZM3.42134 31.2579L18.7946 39.6654V33.1186L9.21087 28.0235L3.42134 31.2579ZM2.36824 30.3372V12.7574L7.9915 15.8993V27.2002L2.36824 30.3372ZM3.02832 11.6176L18.7946 2.99573V9.32329L8.69188 14.6961L8.61126 14.74L3.02832 11.6176ZM35.9112 11.6176L20.145 2.99573V9.32329L30.2477 14.6912L30.3283 14.7351L35.9112 11.6176Z" fill="#8ED6FB"/>
<path d="M18.7946 31.6281L9.34184 26.6011V16.6495L18.7946 21.9249V31.6281ZM20.1449 31.6281L29.5977 26.606V16.6495L20.1449 21.9249V31.6281ZM9.98176 15.4999L19.4698 10.4583L28.9577 15.4999L19.4698 20.7948L9.98176 15.4999Z" fill="#1C78C0"/>
</svg>
