<svg width="46" height="46" viewBox="0 0 46 46" fill="none" xmlns="http://www.w3.org/2000/svg">
<path d="M3.83333 12.4583C3.83333 8.39247 3.83333 6.35954 5.09644 5.09644C6.35954 3.83333 8.39247 3.83333 12.4583 3.83333C16.5242 3.83333 18.5571 3.83333 19.8202 5.09644C21.0833 6.35954 21.0833 8.39247 21.0833 12.4583C21.0833 16.5242 21.0833 18.5571 19.8202 19.8202C18.5571 21.0833 16.5242 21.0833 12.4583 21.0833C8.39247 21.0833 6.35954 21.0833 5.09644 19.8202C3.83333 18.5571 3.83333 16.5242 3.83333 12.4583Z" fill="#3C50E0"/>
<path d="M24.9167 33.5417C24.9167 29.4758 24.9167 27.4429 26.1798 26.1798C27.4429 24.9167 29.4758 24.9167 33.5417 24.9167C37.6075 24.9167 39.6405 24.9167 40.9036 26.1798C42.1667 27.4429 42.1667 29.4758 42.1667 33.5417C42.1667 37.6075 42.1667 39.6405 40.9036 40.9036C39.6405 42.1667 37.6075 42.1667 33.5417 42.1667C29.4758 42.1667 27.4429 42.1667 26.1798 40.9036C24.9167 39.6405 24.9167 37.6075 24.9167 33.5417Z" fill="#3C50E0"/>
<path d="M3.83333 33.5417C3.83333 29.4758 3.83333 27.4429 5.09644 26.1798C6.35954 24.9167 8.39247 24.9167 12.4583 24.9167C16.5242 24.9167 18.5571 24.9167 19.8202 26.1798C21.0833 27.4429 21.0833 29.4758 21.0833 33.5417C21.0833 37.6075 21.0833 39.6405 19.8202 40.9036C18.5571 42.1667 16.5242 42.1667 12.4583 42.1667C8.39247 42.1667 6.35954 42.1667 5.09644 40.9036C3.83333 39.6405 3.83333 37.6075 3.83333 33.5417Z" fill="#3C50E0"/>
<path d="M24.9167 12.4583C24.9167 8.39247 24.9167 6.35954 26.1798 5.09644C27.4429 3.83333 29.4758 3.83333 33.5417 3.83333C37.6075 3.83333 39.6405 3.83333 40.9036 5.09644C42.1667 6.35954 42.1667 8.39247 42.1667 12.4583C42.1667 16.5242 42.1667 18.5571 40.9036 19.8202C39.6405 21.0833 37.6075 21.0833 33.5417 21.0833C29.4758 21.0833 27.4429 21.0833 26.1798 19.8202C24.9167 18.5571 24.9167 16.5242 24.9167 12.4583Z" fill="#3C50E0"/>
</svg>
