<svg width="39" height="39" viewBox="0 0 39 39" fill="none" xmlns="http://www.w3.org/2000/svg">
<path d="M6.87828 33.5088L4.06824 1.98869H34.9318L32.1183 33.5113L19.4925 37.0113L6.87828 33.5088Z" fill="#E34E26"/>
<path d="M19.5 4.5651V34.334L29.7095 31.5039L32.1149 4.5651H19.5Z" fill="#EF662A"/>
<path d="M9.81764 8.43137L10.8597 20.122H24.2589L23.8093 25.1363L19.495 26.3027L15.1889 25.138L14.901 21.9183H11.0205L11.5754 28.1249L19.4941 30.3242L27.4228 28.1249L28.4857 16.2566H14.3955L14.0417 12.2976H28.8243H28.8361L29.1824 8.43137H9.81764Z" fill="white"/>
<path d="M19.5 8.43137H9.81764L10.8597 20.122H19.5V16.2565H14.3955L14.0417 12.2976H19.5V8.43137Z" fill="#EBEBEB"/>
<path d="M19.5 26.301L19.495 26.3027L15.1889 25.138L14.901 21.9183H11.0205L11.5754 28.1249L19.4941 30.3242L19.5 30.3225V26.301Z" fill="#EBEBEB"/>
</svg>
