<svg width="46" height="46" viewBox="0 0 46 46" fill="none" xmlns="http://www.w3.org/2000/svg">
<g clip-path="url(#clip0_810_17072)">
<path fill-rule="evenodd" clip-rule="evenodd" d="M23 9.2C16.8667 9.2 13.0333 12.2249 11.5 18.2748C13.8 15.2499 16.4833 14.1155 19.55 14.8718C21.2997 15.3028 22.5502 16.5556 23.9345 17.9412C26.1893 20.199 28.7994 22.8122 34.5 22.8122C40.6333 22.8122 44.4666 19.7873 46 13.7374C43.7 16.7624 41.0166 17.8967 37.95 17.1405C36.2003 16.7094 34.9498 15.4566 33.5655 14.071C31.3107 11.8132 28.7006 9.2 23 9.2ZM11.5 22.8122C5.36666 22.8122 1.53333 25.8372 0 31.8871C2.3 28.8621 4.98333 27.7278 8.05 28.484C9.7997 28.9159 11.0502 30.1679 12.4345 31.5535C14.6893 33.8113 17.2994 36.4245 23 36.4245C29.1333 36.4245 32.9667 33.3995 34.5 27.3496C32.2 30.3746 29.5167 31.5089 26.45 30.7527C24.7003 30.3217 23.4498 29.0688 22.0655 27.6832C19.8107 25.4254 17.2006 22.8122 11.5 22.8122Z" fill="#3C50E0"/>
</g>
<defs>
<clipPath id="clip0_810_17072">
<rect width="45.3548" height="45.3548" fill="white" transform="scale(1.01422)"/>
</clipPath>
</defs>
</svg>
